<?xml version="1.0" encoding="UTF-8" ?>
<!DOCTYPE svg PUBLIC "-//W3C//DTD SVG 1.1//EN" "http://www.w3.org/Graphics/SVG/1.1/DTD/svg11.dtd">
<svg width="200pt" height="38pt" viewBox="0 0 200 38" version="1.1" xmlns="http://www.w3.org/2000/svg">
<g fill="#192144">
<path d="M 4.00 0.00 L 30.00 0.00 C 29.88 8.68 30.22 17.36 29.87 26.03 C 29.70 29.89 23.41 30.32 22.65 26.57 C 22.08 19.89 22.61 13.16 22.44 6.45 C 18.81 6.43 15.19 6.43 11.56 6.45 C 11.52 12.30 11.62 18.16 11.58 24.01 C 11.49 25.47 11.59 27.23 10.33 28.25 C 8.33 30.26 4.26 28.96 4.12 26.04 C 3.79 17.37 4.11 8.68 4.00 0.00 Z" />
<path d="M 184.31 0.00 L 187.61 0.00 C 192.34 0.72 196.83 4.91 195.94 10.01 C 195.34 14.48 190.45 15.93 187.45 18.50 C 185.16 20.64 181.13 17.95 182.00 15.02 C 182.73 11.74 187.94 12.35 188.46 8.96 C 188.95 6.74 186.15 5.13 184.30 6.22 C 183.24 7.66 182.82 9.44 181.92 10.96 C 179.68 13.40 174.92 11.39 175.39 8.02 C 175.65 3.39 180.08 0.54 184.31 0.00 Z" />
<path d="M 39.34 9.51 C 45.95 6.60 55.65 10.16 56.30 18.03 C 57.36 24.53 51.32 30.11 45.05 29.94 C 39.12 30.56 32.78 26.21 32.62 19.95 C 32.14 15.43 35.14 11.06 39.34 9.51 M 42.36 15.24 C 39.44 16.71 39.25 21.24 42.00 22.98 C 44.55 24.84 48.50 23.05 48.89 19.95 C 49.63 16.48 45.45 13.36 42.36 15.24 Z" />
<path d="M 58.90 9.24 C 63.26 9.47 67.64 9.08 71.99 9.44 C 74.47 9.87 74.94 13.61 72.77 14.80 C 70.54 15.52 68.13 15.11 65.82 15.20 C 65.72 19.05 66.06 22.92 65.64 26.76 C 64.94 29.89 60.00 30.01 59.05 26.97 C 58.51 21.09 58.88 15.14 58.90 9.24 Z" />
<path d="M 75.98 12.95 C 75.69 10.28 78.95 8.35 81.19 9.74 C 83.52 10.98 82.85 13.97 83.10 16.12 C 85.37 16.12 87.64 16.12 89.92 16.12 C 90.15 13.97 89.44 10.98 91.78 9.74 C 93.99 8.36 97.24 10.25 96.97 12.89 C 97.04 17.29 97.09 21.69 96.93 26.08 C 96.93 28.76 93.25 30.25 91.31 28.45 C 89.32 26.90 90.20 24.13 90.17 21.99 C 87.80 22.00 85.44 22.00 83.07 22.00 C 82.80 24.12 83.58 26.86 81.69 28.42 C 79.75 30.26 76.04 28.78 76.03 26.08 C 75.83 21.71 75.89 17.33 75.98 12.95 Z" />
<path d="M 104.00 10.10 C 107.53 7.74 112.14 8.57 115.39 11.01 C 117.23 8.73 121.55 8.67 122.16 12.02 C 122.40 16.99 122.53 22.03 122.06 26.99 C 120.96 29.99 116.92 29.65 115.39 27.21 C 112.29 30.18 107.34 30.74 103.78 28.27 C 97.59 24.30 97.72 13.91 104.00 10.10 M 109.14 15.17 C 106.39 16.28 105.61 20.26 107.73 22.34 C 109.77 24.71 114.08 23.87 115.11 20.92 C 116.77 17.43 112.57 13.38 109.14 15.17 Z" />
<path d="M 127.69 9.23 C 134.10 9.40 140.52 9.28 146.93 9.31 C 146.80 15.15 147.25 21.02 146.72 26.84 C 145.89 29.91 141.05 29.98 140.11 26.96 C 139.58 23.00 139.98 18.99 139.88 15.01 C 138.13 15.00 136.38 15.00 134.63 15.00 C 134.41 18.83 135.37 23.04 133.41 26.55 C 131.50 29.29 126.05 30.67 124.43 26.96 C 123.41 24.49 125.54 22.63 127.64 21.88 C 127.63 17.66 127.58 13.45 127.69 9.23 Z" />
<path d="M 151.25 10.15 C 153.05 8.44 156.50 9.43 156.93 11.93 C 157.23 14.75 157.04 17.58 157.05 20.41 C 159.57 17.16 161.77 13.64 164.53 10.58 C 166.87 8.02 171.79 9.56 172.18 13.04 C 172.41 17.65 172.48 22.32 172.13 26.93 C 171.25 29.75 166.87 30.00 165.68 27.30 C 164.93 24.40 165.43 21.33 165.28 18.36 C 162.72 21.46 160.58 24.91 157.90 27.91 C 155.66 30.40 151.02 29.11 150.28 25.89 C 149.82 22.27 150.12 18.61 150.04 14.98 C 150.13 13.35 149.81 11.32 151.25 10.15 Z" />
<path d="M 183.38 21.52 C 186.06 19.81 190.03 21.79 190.19 24.98 C 190.78 28.48 186.58 31.30 183.54 29.51 C 180.45 28.04 180.37 23.12 183.38 21.52 Z" />
</g>
</svg>
