<?xml version="1.0" encoding="UTF-8" ?>
<!DOCTYPE svg PUBLIC "-//W3C//DTD SVG 1.1//EN" "http://www.w3.org/Graphics/SVG/1.1/DTD/svg11.dtd">
<svg width="400pt" height="104pt" viewBox="0 0 400 104" version="1.1" xmlns="http://www.w3.org/2000/svg">
<g fill="#8a4a38">
<path d="M 49.30 0.00 L 52.69 0.00 C 56.65 0.49 60.58 1.56 64.02 3.62 C 61.16 3.26 59.65 5.69 59.77 8.26 C 54.35 5.39 47.64 5.38 42.23 8.26 C 42.37 5.63 40.84 3.46 38.05 3.53 C 41.50 1.56 45.37 0.49 49.30 0.00 Z" />
<path d="M 33.99 15.76 C 35.35 15.77 36.71 15.77 38.08 15.77 C 38.56 15.77 39.53 15.77 40.01 15.77 C 47.36 15.74 54.72 15.73 62.07 15.78 C 62.57 15.78 63.57 15.78 64.07 15.78 C 65.39 15.77 66.70 15.77 68.01 15.76 C 68.03 19.28 68.02 22.79 67.99 26.30 C 66.15 24.51 64.34 22.67 62.62 20.76 C 60.19 22.22 58.44 24.50 56.42 26.44 C 51.00 32.03 45.37 37.40 39.98 43.02 C 44.30 47.13 48.30 51.57 52.70 55.60 C 57.66 50.39 62.77 45.32 67.95 40.32 C 67.97 41.19 68.01 42.93 68.04 43.80 C 67.53 43.80 66.51 43.81 66.00 43.82 C 66.00 45.19 65.99 46.56 65.99 47.94 C 66.49 47.94 67.50 47.95 68.01 47.95 C 68.03 48.67 68.06 50.10 68.08 50.81 C 68.05 51.65 68.01 53.31 67.99 54.14 C 66.41 55.06 64.48 55.99 64.18 58.01 C 63.34 62.49 65.62 66.76 68.00 70.38 C 68.16 75.59 68.12 80.80 68.05 86.01 C 56.69 86.00 45.32 85.99 33.95 86.01 C 33.86 74.26 33.90 62.51 33.93 50.76 C 33.94 50.06 33.98 48.66 33.99 47.96 C 34.49 47.96 35.50 47.94 36.00 47.94 C 36.00 46.57 35.99 45.20 35.99 43.83 C 35.49 43.82 34.49 43.81 33.99 43.80 C 33.99 34.45 33.98 25.11 33.99 15.76 Z" />
<path d="M 0.00 34.25 C 0.71 24.09 9.93 15.85 20.02 15.69 C 20.00 20.36 20.04 25.04 19.98 29.71 C 17.58 31.49 15.45 33.58 13.54 35.87 C 15.52 38.15 17.72 40.21 19.93 42.26 C 19.96 42.65 20.02 43.41 20.05 43.80 C 19.54 43.81 18.51 43.83 18.00 43.84 C 18.00 45.21 18.00 46.58 18.00 47.95 C 18.50 47.96 19.51 47.98 20.02 47.99 C 20.03 48.69 20.06 50.10 20.08 50.80 C 20.12 53.35 20.08 55.90 20.03 58.46 C 16.44 57.53 12.27 57.63 9.42 60.31 C 4.83 64.04 4.85 71.80 9.42 75.54 C 12.27 78.20 16.44 78.42 20.03 77.39 C 20.09 80.24 20.10 83.09 20.07 85.94 C 16.04 85.93 12.01 85.92 7.98 85.98 C 5.32 86.01 2.66 86.00 0.00 86.00 L 0.00 34.25 Z" />
<path d="M 82.09 15.63 C 89.24 16.09 96.23 19.97 99.60 26.42 C 103.07 32.35 101.76 39.42 102.00 45.95 C 102.18 59.00 101.64 72.08 102.27 85.11 L 101.84 85.99 C 99.23 86.05 96.62 86.00 94.02 85.98 C 89.99 85.92 85.95 85.94 81.92 85.93 C 81.93 84.65 81.95 83.38 81.98 82.10 C 84.69 82.79 87.73 83.86 90.37 82.34 C 92.80 80.89 93.09 77.67 92.49 75.16 C 91.06 68.91 86.68 63.85 81.98 59.72 C 81.90 56.76 81.85 53.80 81.92 50.84 C 81.94 50.12 81.98 48.68 81.99 47.96 C 82.50 47.95 83.51 47.94 84.01 47.93 C 84.00 46.56 84.00 45.19 84.00 43.82 C 83.49 43.81 82.49 43.80 81.98 43.80 C 82.04 34.41 81.85 25.01 82.09 15.63 Z" />
</g>
<g fill="#f6ef3e">
<path d="M 35.97 5.16 C 36.49 4.75 37.53 3.93 38.05 3.53 C 40.84 3.46 42.37 5.63 42.23 8.26 C 41.49 8.84 40.77 9.44 40.05 10.04 C 40.06 11.95 40.04 13.86 40.01 15.77 C 39.53 15.77 38.56 15.77 38.08 15.77 C 38.03 13.88 38.00 12.00 37.94 10.11 C 36.17 8.99 35.72 7.14 35.97 5.16 Z" />
<path d="M 59.77 8.26 C 59.65 5.69 61.16 3.26 64.02 3.62 C 66.71 4.97 66.42 8.45 64.07 9.95 C 64.04 11.90 64.06 13.84 64.07 15.78 C 63.57 15.78 62.57 15.78 62.07 15.78 C 62.02 13.80 62.00 11.82 62.02 9.84 C 61.28 9.30 60.53 8.77 59.77 8.26 Z" />
<path d="M 18.00 43.84 C 18.51 43.83 19.54 43.81 20.05 43.80 C 24.70 43.80 29.34 43.85 33.99 43.80 C 34.49 43.81 35.49 43.82 35.99 43.83 C 35.99 45.20 36.00 46.57 36.00 47.94 C 35.50 47.94 34.49 47.96 33.99 47.96 C 29.33 47.88 24.68 47.92 20.02 47.99 C 19.51 47.98 18.50 47.96 18.00 47.95 C 18.00 46.58 18.00 45.21 18.00 43.84 Z" />
<path d="M 66.00 43.82 C 66.51 43.81 67.53 43.80 68.04 43.80 C 72.69 43.84 77.33 43.84 81.98 43.80 C 82.49 43.80 83.49 43.81 84.00 43.82 C 84.00 45.19 84.00 46.56 84.01 47.93 C 83.51 47.94 82.50 47.95 81.99 47.96 C 77.33 47.91 72.67 47.89 68.01 47.95 C 67.50 47.95 66.49 47.94 65.99 47.94 C 65.99 46.56 66.00 45.19 66.00 43.82 Z" />
</g>
<g fill="#fd8a2d">
<path d="M 78.13 6.48 C 114.45 12.92 150.78 19.30 187.09 25.76 C 183.71 29.47 179.81 32.66 176.37 36.33 C 176.37 34.22 176.38 32.11 176.39 30.00 C 164.93 30.00 153.47 30.00 142.01 30.01 C 142.01 41.35 141.97 52.70 142.02 64.05 C 141.92 65.42 142.83 66.54 143.46 67.67 C 131.47 79.13 119.48 90.59 107.50 102.06 C 105.62 96.45 103.97 90.77 102.27 85.11 C 101.64 72.08 102.18 59.00 102.00 45.95 C 101.76 39.42 103.07 32.35 99.60 26.42 C 96.23 19.97 89.24 16.09 82.09 15.63 C 81.58 14.91 81.07 14.19 80.55 13.48 C 79.48 11.25 78.86 8.83 78.13 6.48 Z" />
<path d="M 151.99 38.60 C 156.79 38.63 161.59 38.64 166.39 38.60 C 166.38 40.97 166.37 43.34 166.37 45.72 C 161.63 50.36 156.76 54.89 152.00 59.52 C 151.99 52.55 152.01 45.58 151.99 38.60 Z" />
<path d="M 20.08 50.80 C 22.16 52.43 24.13 54.88 27.03 54.79 C 29.94 54.93 31.88 52.42 33.93 50.76 C 33.90 62.51 33.86 74.26 33.95 86.01 C 33.96 86.50 33.98 87.48 33.99 87.98 C 29.34 87.97 24.70 87.96 20.06 87.98 C 20.06 87.47 20.07 86.45 20.07 85.94 C 20.10 83.09 20.09 80.24 20.03 77.39 C 19.98 71.08 19.98 64.77 20.03 58.46 C 20.08 55.90 20.12 53.35 20.08 50.80 Z" />
<path d="M 68.08 50.81 C 70.14 52.44 72.09 54.87 74.98 54.74 C 77.86 54.86 79.85 52.45 81.92 50.84 C 81.85 53.80 81.90 56.76 81.98 59.72 C 82.08 67.18 82.09 74.64 81.98 82.10 C 81.95 83.38 81.93 84.65 81.92 85.93 C 81.92 86.44 81.92 87.47 81.93 87.98 C 77.29 87.96 72.66 87.96 68.02 87.98 C 68.03 87.49 68.05 86.50 68.05 86.01 C 68.12 80.80 68.16 75.59 68.00 70.38 C 67.94 64.97 67.93 59.55 67.99 54.14 C 68.01 53.31 68.05 51.65 68.08 50.81 Z" />
</g>
<g fill="#72a73e">
<path d="M 248.16 30.70 C 268.12 24.27 288.08 17.84 308.05 11.44 C 309.29 10.73 310.88 11.26 311.22 12.70 C 314.49 22.59 317.59 32.55 320.85 42.45 C 315.74 42.47 310.63 42.42 305.53 42.48 C 305.52 44.03 305.51 45.57 305.51 47.12 C 303.17 46.87 300.85 46.61 298.53 46.29 C 297.86 44.28 296.30 42.38 294.00 42.37 C 292.07 42.12 290.84 43.77 289.50 44.83 C 285.77 42.01 280.78 40.49 276.30 42.46 C 268.16 45.61 265.63 56.74 270.21 63.77 C 271.66 66.36 274.27 67.91 276.83 69.23 C 281.29 72.38 285.81 75.48 290.79 77.80 C 269.40 84.92 247.88 91.63 226.45 98.61 C 225.34 99.08 223.66 99.26 223.16 97.85 C 221.96 94.63 221.01 91.32 219.97 88.05 C 222.44 87.19 224.63 84.83 223.95 82.04 C 223.38 78.88 219.88 77.31 216.96 78.24 C 216.22 76.63 215.67 74.94 215.15 73.25 C 213.81 68.69 212.15 64.23 210.84 59.66 C 212.13 54.29 210.59 48.39 206.26 44.83 C 207.41 44.11 208.58 43.38 209.89 42.98 C 222.66 38.93 235.39 34.75 248.16 30.70 M 214.57 42.45 C 214.57 49.94 214.44 57.44 214.63 64.93 C 214.90 69.76 222.54 70.32 223.58 65.63 C 224.03 60.54 223.66 55.40 223.73 50.29 C 226.51 50.00 229.30 50.35 232.08 50.10 C 235.69 49.14 235.65 43.45 232.04 42.51 C 226.22 42.27 220.39 42.40 214.57 42.45 M 237.22 46.87 C 237.14 52.91 237.09 58.97 237.26 65.01 C 237.61 68.47 242.31 70.28 244.84 67.83 C 247.29 65.74 246.38 62.20 246.49 59.38 C 249.88 59.25 253.27 59.36 256.66 59.24 C 255.12 61.34 255.56 64.33 256.40 66.63 C 258.28 70.39 264.65 69.24 264.97 65.00 C 265.17 58.99 265.06 52.96 265.02 46.94 C 265.19 43.23 260.14 40.85 257.45 43.48 C 255.06 45.46 255.96 48.88 255.68 51.58 C 252.63 51.53 249.59 51.55 246.55 51.53 C 246.40 48.77 247.17 45.28 244.64 43.35 C 241.90 40.94 237.15 43.28 237.22 46.87 Z" />
</g>
<g fill="#f7aa26">
<path d="M 20.03 13.56 C 24.68 13.58 29.34 13.57 33.99 13.57 L 33.99 15.76 C 33.98 25.11 33.99 34.45 33.99 43.80 C 29.34 43.85 24.70 43.80 20.05 43.80 C 20.02 43.41 19.96 42.65 19.93 42.26 C 20.00 38.08 20.02 33.90 19.98 29.71 C 20.04 25.04 20.00 20.36 20.02 15.69 C 20.02 15.15 20.03 14.09 20.03 13.56 Z" />
<path d="M 68.01 13.57 C 72.19 13.55 76.37 13.65 80.55 13.48 C 81.07 14.19 81.58 14.91 82.09 15.63 C 81.85 25.01 82.04 34.41 81.98 43.80 C 77.33 43.84 72.69 43.84 68.04 43.80 C 68.01 42.93 67.97 41.19 67.95 40.32 C 68.02 35.65 67.99 30.98 67.99 26.30 C 68.02 22.79 68.03 19.28 68.01 15.76 L 68.01 13.57 Z" />
<path d="M 364.48 14.68 C 367.60 12.55 372.14 15.34 372.04 18.99 C 372.15 22.67 367.54 25.48 364.43 23.29 C 361.19 21.53 361.22 16.39 364.48 14.68 Z" />
<path d="M 348.46 20.70 C 351.57 18.54 356.15 21.34 356.04 25.00 C 356.15 28.65 351.61 31.44 348.50 29.33 C 345.22 27.62 345.19 22.44 348.46 20.70 Z" />
<path d="M 20.02 47.99 C 24.68 47.92 29.33 47.88 33.99 47.96 C 33.98 48.66 33.94 50.06 33.93 50.76 C 31.88 52.42 29.94 54.93 27.03 54.79 C 24.13 54.88 22.16 52.43 20.08 50.80 C 20.06 50.10 20.03 48.69 20.02 47.99 Z" />
<path d="M 68.01 47.95 C 72.67 47.89 77.33 47.91 81.99 47.96 C 81.98 48.68 81.94 50.12 81.92 50.84 C 79.85 52.45 77.86 54.86 74.98 54.74 C 72.09 54.87 70.14 52.44 68.08 50.81 C 68.06 50.10 68.03 48.67 68.01 47.95 Z" />
<path d="M 216.96 78.24 C 219.88 77.31 223.38 78.88 223.95 82.04 C 224.63 84.83 222.44 87.19 219.97 88.05 C 217.01 88.49 213.93 86.09 213.97 83.03 C 213.88 80.98 215.35 79.30 216.96 78.24 Z" />
</g>
<g fill="#ec9898">
<path d="M 192.04 41.69 C 192.97 28.37 203.66 16.52 216.88 14.45 C 229.35 12.08 242.92 18.75 248.52 30.14 L 248.16 30.70 C 235.39 34.75 222.66 38.93 209.89 42.98 C 208.58 43.38 207.41 44.11 206.26 44.83 C 202.17 41.90 196.98 40.85 192.04 41.69 Z" />
<path d="M 192.55 50.30 C 195.52 48.81 199.52 49.88 200.86 53.03 C 202.55 56.20 200.60 60.03 197.54 61.45 C 195.22 58.06 193.64 54.25 192.55 50.30 Z" />
<path d="M 9.42 60.31 C 12.27 57.63 16.44 57.53 20.03 58.46 C 19.98 64.77 19.98 71.08 20.03 77.39 C 16.44 78.42 12.27 78.20 9.42 75.54 C 4.85 71.80 4.83 64.04 9.42 60.31 Z" />
<path d="M 204.18 68.03 C 207.23 66.02 209.68 63.16 210.84 59.66 C 212.15 64.23 213.81 68.69 215.15 73.25 C 211.21 72.21 207.39 70.58 204.18 68.03 Z" />
</g>
<g fill="#c2dea3">
<path d="M 56.42 26.44 C 58.44 24.50 60.19 22.22 62.62 20.76 C 64.34 22.67 66.15 24.51 67.99 26.30 C 67.99 30.98 68.02 35.65 67.95 40.32 C 62.77 45.32 57.66 50.39 52.70 55.60 C 48.30 51.57 44.30 47.13 39.98 43.02 C 45.37 37.40 51.00 32.03 56.42 26.44 Z" />
</g>
<g fill="#c39a6c">
<path d="M 13.54 35.87 C 15.45 33.58 17.58 31.49 19.98 29.71 C 20.02 33.90 20.00 38.08 19.93 42.26 C 17.72 40.21 15.52 38.15 13.54 35.87 Z" />
</g>
<g fill="#192145">
<path d="M 142.01 30.01 C 153.47 30.00 164.93 30.00 176.39 30.00 C 176.38 32.11 176.37 34.22 176.37 36.33 C 176.35 45.55 176.43 54.78 176.35 64.00 C 176.44 66.46 174.34 68.71 171.91 68.93 C 169.14 69.28 166.38 66.92 166.42 64.10 C 166.28 57.98 166.43 51.84 166.37 45.72 C 166.37 43.34 166.38 40.97 166.39 38.60 C 161.59 38.64 156.79 38.63 151.99 38.60 C 152.01 45.58 151.99 52.55 152.00 59.52 C 151.89 62.38 152.71 66.03 149.98 67.96 C 148.03 69.53 145.36 69.00 143.46 67.67 C 142.83 66.54 141.92 65.42 142.02 64.05 C 141.97 52.70 142.01 41.35 142.01 30.01 Z" />
<path d="M 378.41 30.44 C 385.16 28.56 393.78 31.77 395.67 39.01 C 397.37 44.33 393.74 49.86 388.66 51.55 C 386.34 52.05 385.96 55.11 383.56 55.47 C 379.95 56.75 375.99 52.63 377.77 49.10 C 379.23 45.55 384.43 46.63 385.80 43.00 C 387.28 40.09 383.82 36.68 380.93 38.14 C 378.14 39.17 379.54 42.85 377.49 44.52 C 374.88 47.37 369.53 45.93 368.81 42.09 C 368.20 36.39 373.11 31.56 378.41 30.44 Z" />
<path d="M 183.40 46.34 C 185.65 43.86 188.82 42.41 192.04 41.69 C 196.98 40.85 202.17 41.90 206.26 44.83 C 210.59 48.39 212.13 54.29 210.84 59.66 C 209.68 63.16 207.23 66.02 204.18 68.03 C 201.56 68.99 198.87 69.86 196.06 69.96 C 190.98 70.08 185.58 68.29 182.52 64.02 C 178.69 58.88 178.91 51.02 183.40 46.34 M 192.55 50.30 C 189.71 52.19 188.61 56.37 190.81 59.16 C 192.22 61.43 195.09 61.94 197.54 61.45 C 200.60 60.03 202.55 56.20 200.86 53.03 C 199.52 49.88 195.52 48.81 192.55 50.30 Z" />
<path d="M 276.30 42.46 C 280.78 40.49 285.77 42.01 289.50 44.83 C 290.84 43.77 292.07 42.12 294.00 42.37 C 296.30 42.38 297.86 44.28 298.53 46.29 C 298.40 52.53 298.69 58.78 298.38 65.01 C 297.97 69.60 291.03 70.30 289.47 66.04 C 286.21 69.43 281.31 70.59 276.83 69.23 C 274.27 67.91 271.66 66.36 270.21 63.77 C 265.63 56.74 268.16 45.61 276.30 42.46 M 281.19 50.15 C 277.49 51.62 276.40 56.93 279.20 59.76 C 281.87 62.96 287.53 61.86 288.95 57.99 C 291.22 53.40 285.83 47.91 281.19 50.15 Z" />
<path d="M 305.53 42.48 C 310.63 42.42 315.74 42.47 320.85 42.45 C 324.19 42.43 327.54 42.48 330.88 42.37 C 331.26 46.18 330.97 50.02 331.06 53.85 C 330.92 57.84 331.38 61.87 330.80 65.83 C 329.63 69.87 323.31 69.90 322.06 65.91 C 321.34 60.75 321.98 55.49 321.71 50.29 C 319.41 50.06 317.11 49.96 314.81 49.97 C 314.53 55.02 315.74 60.53 313.32 65.21 C 310.95 68.78 304.20 70.85 301.61 66.50 C 299.58 63.03 303.07 58.73 306.87 59.58 C 306.53 59.28 305.84 58.68 305.50 58.37 C 305.40 54.62 305.55 50.87 305.51 47.12 C 305.51 45.57 305.52 44.03 305.53 42.48 Z" />
<path d="M 214.57 42.45 C 220.39 42.40 226.22 42.27 232.04 42.51 C 235.65 43.45 235.69 49.14 232.08 50.10 C 229.30 50.35 226.51 50.00 223.73 50.29 C 223.66 55.40 224.03 60.54 223.58 65.63 C 222.54 70.32 214.90 69.76 214.63 64.93 C 214.44 57.44 214.57 49.94 214.57 42.45 Z" />
<path d="M 237.22 46.87 C 237.15 43.28 241.90 40.94 244.64 43.35 C 247.17 45.28 246.40 48.77 246.55 51.53 C 249.59 51.55 252.63 51.53 255.68 51.58 C 255.96 48.88 255.06 45.46 257.45 43.48 C 260.14 40.85 265.19 43.23 265.02 46.94 C 265.06 52.96 265.17 58.99 264.97 65.00 C 264.65 69.24 258.28 70.39 256.40 66.63 C 255.56 64.33 255.12 61.34 256.66 59.24 C 253.27 59.36 249.88 59.25 246.49 59.38 C 246.38 62.20 247.29 65.74 244.84 67.83 C 242.31 70.28 237.61 68.47 237.26 65.01 C 237.09 58.97 237.14 52.91 237.22 46.87 Z" />
<path d="M 336.70 43.67 C 339.35 40.82 344.73 43.14 344.48 47.02 C 344.22 50.68 345.37 54.72 343.46 58.05 C 347.73 53.72 350.54 48.13 354.73 43.73 C 358.28 40.62 364.48 43.37 364.62 48.05 C 364.74 53.67 364.75 59.31 364.61 64.93 C 364.30 69.15 358.08 70.41 356.08 66.72 C 354.65 63.06 355.64 58.94 355.42 55.09 C 352.52 56.99 351.12 60.65 348.76 63.19 C 347.10 65.29 345.75 68.13 342.89 68.74 C 339.84 69.64 336.40 67.62 335.54 64.59 C 334.82 61.62 335.66 58.50 334.97 55.52 C 336.12 51.68 333.77 46.91 336.70 43.67 Z" />
<path d="M 380.17 58.30 C 383.92 56.62 388.61 59.89 388.32 63.99 C 388.64 68.62 382.73 71.78 379.02 69.03 C 375.05 66.60 375.73 59.80 380.17 58.30 Z" />
<path d="M 7.98 85.98 C 12.01 85.92 16.04 85.93 20.07 85.94 C 20.07 86.45 20.06 87.47 20.06 87.98 C 19.98 89.64 20.24 91.60 18.87 92.86 C 16.74 94.77 13.58 93.92 10.99 93.91 C 7.38 93.06 7.92 88.80 7.98 85.98 Z" />
<path d="M 81.92 85.93 C 85.95 85.94 89.99 85.92 94.02 85.98 C 93.83 88.26 94.66 91.02 92.87 92.85 C 90.76 94.77 87.61 93.92 85.03 93.92 C 82.31 93.38 81.69 90.34 81.93 87.98 C 81.92 87.47 81.92 86.44 81.92 85.93 Z" />
</g>
<g fill="#8ec7f4">
<path d="M 298.53 46.29 C 300.85 46.61 303.17 46.87 305.51 47.12 C 305.55 50.87 305.40 54.62 305.50 58.37 C 305.84 58.68 306.53 59.28 306.87 59.58 C 303.07 58.73 299.58 63.03 301.61 66.50 C 304.20 70.85 310.95 68.78 313.32 65.21 C 315.74 60.53 314.53 55.02 314.81 49.97 C 317.11 49.96 319.41 50.06 321.71 50.29 C 321.98 55.49 321.34 60.75 322.06 65.91 C 323.31 69.90 329.63 69.87 330.80 65.83 C 331.38 61.87 330.92 57.84 331.06 53.85 C 332.37 54.38 333.67 54.94 334.97 55.52 C 335.66 58.50 334.82 61.62 335.54 64.59 C 336.40 67.62 339.84 69.64 342.89 68.74 C 345.75 68.13 347.10 65.29 348.76 63.19 C 352.99 66.51 357.65 70.32 358.84 75.85 C 359.84 80.23 356.24 83.97 352.47 85.50 C 344.77 88.73 336.17 88.58 327.99 88.00 C 315.13 86.75 302.50 83.25 290.79 77.80 C 285.81 75.48 281.29 72.38 276.83 69.23 C 281.31 70.59 286.21 69.43 289.47 66.04 C 291.03 70.30 297.97 69.60 298.38 65.01 C 298.69 58.78 298.40 52.53 298.53 46.29 Z" />
<path d="M 281.19 50.15 C 285.83 47.91 291.22 53.40 288.95 57.99 C 287.53 61.86 281.87 62.96 279.20 59.76 C 276.40 56.93 277.49 51.62 281.19 50.15 Z" />
<path d="M 64.18 58.01 C 64.48 55.99 66.41 55.06 67.99 54.14 C 67.93 59.55 67.94 64.97 68.00 70.38 C 65.62 66.76 63.34 62.49 64.18 58.01 Z" />
<path d="M 81.98 59.72 C 86.68 63.85 91.06 68.91 92.49 75.16 C 93.09 77.67 92.80 80.89 90.37 82.34 C 87.73 83.86 84.69 82.79 81.98 82.10 C 82.09 74.64 82.08 67.18 81.98 59.72 Z" />
<path d="M 184.70 77.26 C 179.53 75.14 178.50 67.76 182.52 64.02 C 185.58 68.29 190.98 70.08 196.06 69.96 C 196.13 75.53 189.76 79.85 184.70 77.26 Z" />
</g>
</svg>
