<?xml version="1.0" encoding="UTF-8" ?>
<!DOCTYPE svg PUBLIC "-//W3C//DTD SVG 1.1//EN" "http://www.w3.org/Graphics/SVG/1.1/DTD/svg11.dtd">
<svg width="396pt" height="396pt" viewBox="0 0 396 396" version="1.1" xmlns="http://www.w3.org/2000/svg">
<g fill="#fdfdfe">
<path d="M 195.22 0.00 L 201.37 0.00 C 229.26 0.56 257.08 6.80 282.29 18.83 C 272.30 28.45 265.44 41.26 263.05 54.93 C 260.05 71.52 263.36 89.23 272.56 103.41 C 282.21 118.58 298.29 129.42 315.96 132.75 C 337.88 137.23 361.84 129.98 377.26 113.69 C 389.13 139.16 395.64 167.10 396.00 195.21 L 396.00 200.82 C 395.55 234.62 386.28 268.25 369.24 297.46 C 344.81 339.66 304.31 372.25 257.75 386.82 C 239.33 392.70 220.03 395.64 200.71 396.00 L 192.63 396.00 C 159.81 394.96 127.16 386.03 98.82 369.35 C 63.43 349.02 34.76 317.31 17.83 280.19 C 6.79 256.17 0.87 229.92 0.00 203.52 L 0.00 195.21 C 0.40 170.67 5.21 146.16 14.56 123.45 C 29.93 85.28 57.71 52.32 92.52 30.42 C 123.08 11.05 159.05 0.48 195.22 0.00 M 136.34 116.49 C 128.52 118.36 122.03 125.80 122.07 133.98 C 121.97 177.66 122.10 221.33 122.02 265.00 C 121.52 274.83 130.20 283.75 139.96 283.92 C 157.63 284.02 175.30 283.92 192.97 283.98 C 197.27 283.96 201.70 284.22 205.83 282.79 C 212.88 280.49 217.90 273.37 218.01 266.01 C 218.03 224.36 217.98 182.71 217.97 141.06 C 217.93 136.24 218.54 131.11 216.25 126.67 C 213.46 120.39 206.83 116.04 199.95 116.05 C 180.95 115.97 161.96 116.10 142.96 116.00 C 140.75 116.00 138.51 116.02 136.34 116.49 M 232.30 164.36 C 229.43 165.74 229.91 169.36 230.01 171.99 C 229.93 174.59 232.50 176.31 234.92 176.00 C 247.59 176.08 260.27 175.93 272.94 176.04 C 279.82 175.60 279.87 188.22 273.06 187.96 C 260.05 188.23 247.03 187.76 234.02 188.10 C 231.91 187.97 229.90 189.73 230.02 191.90 C 229.76 194.68 229.42 199.17 233.04 199.86 C 245.68 200.28 258.36 199.79 271.00 200.08 C 274.61 200.20 277.97 203.26 277.87 206.98 C 277.89 215.00 278.11 223.04 277.91 231.05 C 278.10 233.78 275.77 236.14 273.04 235.96 C 262.70 236.10 252.36 235.93 242.02 236.01 C 238.79 236.11 235.46 235.58 232.30 236.41 C 229.09 237.89 229.90 242.05 230.16 244.89 C 230.52 247.17 232.98 248.13 235.05 247.94 C 248.38 247.94 261.72 248.08 275.06 247.92 C 283.23 247.78 290.21 240.15 289.96 232.04 C 289.94 214.70 289.93 197.36 289.98 180.02 C 290.41 171.44 282.53 163.70 274.00 164.02 C 260.11 164.31 246.15 163.54 232.30 164.36 M 247.31 212.33 C 243.18 213.51 241.78 219.16 244.78 222.20 C 246.73 225.12 250.52 223.65 253.37 223.46 C 256.26 222.98 259.43 224.96 262.03 223.01 C 266.27 220.75 265.16 213.56 260.69 212.32 C 259.03 211.65 257.30 212.33 255.65 212.64 C 252.88 213.65 250.08 211.26 247.31 212.33 Z" />
<path d="M 139.30 128.38 C 141.90 127.74 145.21 127.64 147.17 129.78 C 149.15 133.09 149.75 137.56 153.32 139.68 C 157.48 140.48 161.76 139.91 165.98 140.03 C 172.87 139.71 179.87 140.63 186.70 139.58 C 189.97 137.26 190.44 132.81 192.71 129.70 C 196.84 125.98 204.98 128.32 205.81 134.05 C 206.26 138.69 205.88 143.36 206.00 148.01 C 205.90 152.10 206.65 156.64 204.19 160.23 C 202.48 162.92 199.11 163.85 196.10 163.99 C 188.40 164.15 180.70 163.87 173.00 164.07 C 164.75 164.20 157.72 171.84 158.01 180.04 C 158.01 196.68 158.06 213.32 158.00 229.95 C 156.71 239.18 164.56 248.39 173.99 247.97 C 181.68 248.09 189.38 247.78 197.06 248.10 C 201.73 248.32 205.62 252.29 205.89 256.93 C 206.00 260.61 206.56 264.57 205.11 268.05 C 203.83 270.73 200.82 272.06 197.97 271.95 C 179.65 272.00 161.33 271.91 143.01 271.99 C 141.07 271.97 138.99 271.88 137.36 270.69 C 134.44 268.91 134.09 265.10 134.03 262.01 C 134.01 220.68 134.09 179.35 134.00 138.02 C 133.90 134.24 135.10 129.42 139.30 128.38 Z" />
<path d="M 182.56 191.56 C 183.65 188.01 187.91 187.92 190.96 187.98 C 195.80 188.21 200.76 187.44 205.52 188.52 C 206.21 192.00 206.66 195.97 205.38 199.33 C 199.82 200.84 193.71 199.76 187.95 199.90 C 183.72 200.11 180.69 195.32 182.56 191.56 Z" />
</g>
<g fill="#ffd74b">
<path d="M 325.55 0.00 L 332.29 0.00 C 349.42 1.03 366.19 8.46 377.92 21.08 C 388.63 32.28 394.88 47.35 396.00 62.75 L 396.00 70.50 C 395.11 86.52 388.51 102.21 377.26 113.69 C 361.84 129.98 337.88 137.23 315.96 132.75 C 298.29 129.42 282.21 118.58 272.56 103.41 C 263.36 89.23 260.05 71.52 263.05 54.93 C 265.44 41.26 272.30 28.45 282.29 18.83 C 293.84 7.59 309.52 1.01 325.55 0.00 M 314.39 41.06 C 314.11 54.71 314.57 68.39 314.16 82.03 C 311.34 81.97 306.48 81.79 307.04 85.99 C 307.24 89.72 311.61 88.83 314.13 89.23 C 314.28 91.99 313.96 96.60 318.00 96.50 C 321.73 96.28 321.45 92.01 321.46 89.31 C 327.94 88.60 334.55 89.25 341.07 88.94 C 344.16 88.25 344.57 83.42 341.48 82.40 C 334.87 81.64 327.95 82.72 321.42 81.76 C 321.37 79.32 321.28 76.87 321.47 74.44 C 326.28 73.87 331.16 74.40 336.00 74.19 C 342.53 74.42 349.02 70.87 352.29 65.20 C 356.39 58.38 355.24 48.99 349.80 43.23 C 346.29 39.48 341.12 37.54 336.03 37.57 C 330.04 37.58 324.04 37.53 318.05 37.59 C 316.07 37.45 314.34 39.08 314.39 41.06 Z" />
<path d="M 321.34 46.04 C 321.49 45.69 321.78 44.98 321.93 44.63 C 327.28 44.55 332.65 44.45 338.00 44.68 C 344.71 45.33 349.27 52.90 347.25 59.21 C 345.74 64.36 340.31 67.74 335.02 67.19 C 330.56 66.83 325.66 67.92 321.47 66.62 C 321.07 59.78 321.54 52.90 321.34 46.04 Z" />
</g>
<g fill="#161c35">
<path d="M 314.39 41.06 C 314.34 39.08 316.07 37.45 318.05 37.59 C 324.04 37.53 330.04 37.58 336.03 37.57 C 341.12 37.54 346.29 39.48 349.80 43.23 C 355.24 48.99 356.39 58.38 352.29 65.20 C 349.02 70.87 342.53 74.42 336.00 74.19 C 331.16 74.40 326.28 73.87 321.47 74.44 C 321.28 76.87 321.37 79.32 321.42 81.76 C 327.95 82.72 334.87 81.64 341.48 82.40 C 344.57 83.42 344.16 88.25 341.07 88.94 C 334.55 89.25 327.94 88.60 321.46 89.31 C 321.45 92.01 321.73 96.28 318.00 96.50 C 313.96 96.60 314.28 91.99 314.13 89.23 C 311.61 88.83 307.24 89.72 307.04 85.99 C 306.48 81.79 311.34 81.97 314.16 82.03 C 314.57 68.39 314.11 54.71 314.39 41.06 M 321.34 46.04 C 321.54 52.90 321.07 59.78 321.47 66.62 C 325.66 67.92 330.56 66.83 335.02 67.19 C 340.31 67.74 345.74 64.36 347.25 59.21 C 349.27 52.90 344.71 45.33 338.00 44.68 C 332.65 44.45 327.28 44.55 321.93 44.63 C 321.78 44.98 321.49 45.69 321.34 46.04 Z" />
</g>
<g fill="#edeff6">
<path d="M 136.34 116.49 C 138.51 116.02 140.75 116.00 142.96 116.00 C 161.96 116.10 180.95 115.97 199.95 116.05 C 206.83 116.04 213.46 120.39 216.25 126.67 C 218.54 131.11 217.93 136.24 217.97 141.06 C 217.98 182.71 218.03 224.36 218.01 266.01 C 217.90 273.37 212.88 280.49 205.83 282.79 C 201.70 284.22 197.27 283.96 192.97 283.98 C 175.30 283.92 157.63 284.02 139.96 283.92 C 130.20 283.75 121.52 274.83 122.02 265.00 C 122.10 221.33 121.97 177.66 122.07 133.98 C 122.03 125.80 128.52 118.36 136.34 116.49 M 139.30 128.38 C 135.10 129.42 133.90 134.24 134.00 138.02 C 134.09 179.35 134.01 220.68 134.03 262.01 C 134.09 265.10 134.44 268.91 137.36 270.69 C 138.99 271.88 141.07 271.97 143.01 271.99 C 161.33 271.91 179.65 272.00 197.97 271.95 C 200.82 272.06 203.83 270.73 205.11 268.05 C 206.56 264.57 206.00 260.61 205.89 256.93 C 205.62 252.29 201.73 248.32 197.06 248.10 C 189.38 247.78 181.68 248.09 173.99 247.97 C 164.56 248.39 156.71 239.18 158.00 229.95 C 158.06 213.32 158.01 196.68 158.01 180.04 C 157.72 171.84 164.75 164.20 173.00 164.07 C 180.70 163.87 188.40 164.15 196.10 163.99 C 199.11 163.85 202.48 162.92 204.19 160.23 C 206.65 156.64 205.90 152.10 206.00 148.01 C 205.88 143.36 206.26 138.69 205.81 134.05 C 204.98 128.32 196.84 125.98 192.71 129.70 C 190.44 132.81 189.97 137.26 186.70 139.58 C 179.87 140.63 172.87 139.71 165.98 140.03 C 161.76 139.91 157.48 140.48 153.32 139.68 C 149.75 137.56 149.15 133.09 147.17 129.78 C 145.21 127.64 141.90 127.74 139.30 128.38 M 182.56 191.56 C 180.69 195.32 183.72 200.11 187.95 199.90 C 193.71 199.76 199.82 200.84 205.38 199.33 C 206.66 195.97 206.21 192.00 205.52 188.52 C 200.76 187.44 195.80 188.21 190.96 187.98 C 187.91 187.92 183.65 188.01 182.56 191.56 Z" />
<path d="M 232.30 164.36 C 246.15 163.54 260.11 164.31 274.00 164.02 C 282.53 163.70 290.41 171.44 289.98 180.02 C 289.93 197.36 289.94 214.70 289.96 232.04 C 290.21 240.15 283.23 247.78 275.06 247.92 C 261.72 248.08 248.38 247.94 235.05 247.94 C 232.98 248.13 230.52 247.17 230.16 244.89 C 229.90 242.05 229.09 237.89 232.30 236.41 C 235.46 235.58 238.79 236.11 242.02 236.01 C 252.36 235.93 262.70 236.10 273.04 235.96 C 275.77 236.14 278.10 233.78 277.91 231.05 C 278.11 223.04 277.89 215.00 277.87 206.98 C 277.97 203.26 274.61 200.20 271.00 200.08 C 258.36 199.79 245.68 200.28 233.04 199.86 C 229.42 199.17 229.76 194.68 230.02 191.90 C 229.90 189.73 231.91 187.97 234.02 188.10 C 247.03 187.76 260.05 188.23 273.06 187.96 C 279.87 188.22 279.82 175.60 272.94 176.04 C 260.27 175.93 247.59 176.08 234.92 176.00 C 232.50 176.31 229.93 174.59 230.01 171.99 C 229.91 169.36 229.43 165.74 232.30 164.36 Z" />
<path d="M 247.31 212.33 C 250.08 211.26 252.88 213.65 255.65 212.64 C 257.30 212.33 259.03 211.65 260.69 212.32 C 265.16 213.56 266.27 220.75 262.03 223.01 C 259.43 224.96 256.26 222.98 253.37 223.46 C 250.52 223.65 246.73 225.12 244.78 222.20 C 241.78 219.16 243.18 213.51 247.31 212.33 Z" />
</g>
</svg>
