<?xml version="1.0" encoding="UTF-8" standalone="no"?>
<svg
   xmlns:dc="http://purl.org/dc/elements/1.1/"
   xmlns:cc="http://creativecommons.org/ns#"
   xmlns:rdf="http://www.w3.org/1999/02/22-rdf-syntax-ns#"
   xmlns:svg="http://www.w3.org/2000/svg"
   xmlns="http://www.w3.org/2000/svg"
   xmlns:sodipodi="http://sodipodi.sourceforge.net/DTD/sodipodi-0.dtd"
   xmlns:inkscape="http://www.inkscape.org/namespaces/inkscape"
   width="396pt"
   height="396pt"
   viewBox="0 0 396 396"
   version="1.1"
   id="svg28"
   sodipodi:docname="rates2.svg"
   inkscape:version="0.92.4 (5da689c313, 2019-01-14)">
  <metadata
     id="metadata34">
    <rdf:RDF>
      <cc:Work
         rdf:about="">
        <dc:format>image/svg+xml</dc:format>
        <dc:type
           rdf:resource="http://purl.org/dc/dcmitype/StillImage" />
        <dc:title></dc:title>
      </cc:Work>
    </rdf:RDF>
  </metadata>
  <defs
     id="defs32" />
  <sodipodi:namedview
     pagecolor="#ffffff"
     bordercolor="#666666"
     borderopacity="1"
     objecttolerance="10"
     gridtolerance="10"
     guidetolerance="10"
     inkscape:pageopacity="0"
     inkscape:pageshadow="2"
     inkscape:window-width="3747"
     inkscape:window-height="2126"
     id="namedview30"
     showgrid="false"
     inkscape:lockguides="false"
     inkscape:zoom="2.8284271"
     inkscape:cx="470.35565"
     inkscape:cy="318.68374"
     inkscape:window-x="82"
     inkscape:window-y="-11"
     inkscape:window-maximized="1"
     inkscape:current-layer="svg28" />
  <circle
     style="fill:#ffffff;fill-opacity:1;stroke:none;stroke-width:27.11489487;stroke-miterlimit:4;stroke-dasharray:none;stroke-opacity:1"
     id="path4559"
     cx="198"
     cy="197.99998"
     r="198" />
  <circle
     style="fill:#ffd74b;fill-opacity:1;stroke:none;stroke-width:3.375;stroke-miterlimit:4;stroke-dasharray:none;stroke-opacity:1"
     id="path4557"
     cx="328.98676"
     cy="67.040253"
     r="67.012497" />
  <path
     d="m 314.39,41.06 c -0.05,-1.98 1.68,-3.61 3.66,-3.47 l 17.98,-0.02 c 5.09,-0.03 10.26,1.91 13.77,5.66 5.44,5.76 6.59,15.15 2.49,21.97 -3.27,5.67 -9.76,9.22 -16.29,8.99 l -15.375,0.04887 v 8.240787 l 20.85498,0.08081 c 3.09,1.02 2.68,5.624533 -0.41,6.314533 H 320.625 c -0.01,2.7 1.20868,7.479164 -2.52132,7.699164 -4.04,0.1 -3.80657,-4.926055 -3.75993,-7.699164 -2.79527,-0.01984 -7.10375,0.845 -7.30375,-2.885 -0.56,-4.2 4.48375,-3.610468 7.30375,-3.550468 V 41.06 M 320.625,67.5 h 14.38189 C 340.21824,67.748499 345.74,64.36 347.25,59.21 349.27,52.9 344.71,45.125 338,44.475 h -17.375 z"
     id="path16"
     inkscape:connector-curvature="0"
     sodipodi:nodetypes="cccccccccccccccccccccc"
     style="display:inline;fill:#161c35;fill-opacity:1" />
  <g
     id="g26"
     style="display:inline;fill:#edeff6">
    <path
       d="m 136.34,116.49 c 2.17,-0.47 4.41,-0.49 6.62,-0.49 19,0.1 37.99,-0.03 56.99,0.05 6.88,-0.01 13.51,4.34 16.3,10.62 2.29,4.44 1.68,9.57 1.72,14.39 0.01,41.65 0.06,83.3 0.04,124.95 -0.11,7.36 -5.13,14.48 -12.18,16.78 -4.13,1.43 -8.56,1.17 -12.86,1.19 -17.67,-0.06 -35.34,0.04 -53.01,-0.06 -9.76,-0.17 -18.44,-9.09 -17.94,-18.92 0.08,-43.67 -0.05,-87.34 0.05,-131.02 -0.04,-8.18 6.45,-15.62 14.27,-17.49 m 2.96,11.89 c -4.2,1.04 -5.4,5.86 -5.3,9.64 0.09,41.33 0.01,82.66 0.03,123.99 0.06,3.09 0.41,6.9 3.33,8.68 1.63,1.19 3.71,1.28 5.65,1.3 18.32,-0.08 36.64,0.01 54.96,-0.04 2.85,0.11 5.86,-1.22 7.14,-3.9 1.45,-3.48 0.89,-7.44 0.78,-11.12 -0.27,-4.64 -4.16,-8.61 -8.83,-8.83 -7.68,-0.32 -15.38,-0.01 -23.07,-0.13 -9.43,0.42 -17.28,-8.79 -15.99,-18.02 0.06,-16.63 0.01,-33.27 0.01,-49.91 -0.29,-8.2 6.74,-15.84 14.99,-15.97 7.7,-0.2 15.4,0.08 23.1,-0.08 3.01,-0.14 6.38,-1.07 8.09,-3.76 2.46,-3.59 1.71,-8.13 1.81,-12.22 -0.12,-4.65 0.26,-9.32 -0.19,-13.96 -0.83,-5.73 -8.97,-8.07 -13.1,-4.35 -2.27,3.11 -2.74,7.56 -6.01,9.88 -6.83,1.05 -13.83,0.13 -20.72,0.45 -4.22,-0.12 -8.5,0.45 -12.66,-0.35 -3.57,-2.12 -4.17,-6.59 -6.15,-9.9 -1.96,-2.14 -5.27,-2.04 -7.87,-1.4 m 43.26,63.18 c -1.87,3.76 1.16,8.55 5.39,8.34 5.76,-0.14 11.87,0.94 17.43,-0.57 1.28,-3.36 0.83,-7.33 0.14,-10.81 -4.76,-1.08 -9.72,-0.31 -14.56,-0.54 -3.05,-0.06 -7.31,0.03 -8.4,3.58 z"
       id="path20"
       inkscape:connector-curvature="0" />
    <path
       d="m 232.3,164.36 c 13.85,-0.82 27.81,-0.05 41.7,-0.34 8.53,-0.32 16.41,7.42 15.98,16 -0.05,17.34 -0.04,34.68 -0.02,52.02 0.25,8.11 -6.73,15.74 -14.9,15.88 -13.34,0.16 -26.68,0.02 -40.01,0.02 -2.07,0.19 -4.53,-0.77 -4.89,-3.05 -0.26,-2.84 -1.07,-7 2.14,-8.48 3.16,-0.83 6.49,-0.3 9.72,-0.4 10.34,-0.08 20.68,0.09 31.02,-0.05 2.73,0.18 5.06,-2.18 4.87,-4.91 0.2,-8.01 -0.02,-16.05 -0.04,-24.07 0.1,-3.72 -3.26,-6.78 -6.87,-6.9 -12.64,-0.29 -25.32,0.2 -37.96,-0.22 -3.62,-0.69 -3.28,-5.18 -3.02,-7.96 -0.12,-2.17 1.89,-3.93 4,-3.8 13.01,-0.34 26.03,0.13 39.04,-0.14 6.81,0.26 6.76,-12.36 -0.12,-11.92 -12.67,-0.11 -25.35,0.04 -38.02,-0.04 -2.42,0.31 -4.99,-1.41 -4.91,-4.01 -0.1,-2.63 -0.58,-6.25 2.29,-7.63 z"
       id="path22"
       inkscape:connector-curvature="0" />
    <path
       d="m 247.31,212.33 c 2.77,-1.07 5.57,1.32 8.34,0.31 1.65,-0.31 3.38,-0.99 5.04,-0.32 4.47,1.24 5.58,8.43 1.34,10.69 -2.6,1.95 -5.77,-0.03 -8.66,0.45 -2.85,0.19 -6.64,1.66 -8.59,-1.26 -3,-3.04 -1.6,-8.69 2.53,-9.87 z"
       id="path24"
       inkscape:connector-curvature="0" />
  </g>
</svg>
