<?xml version="1.0" encoding="utf-8"?>
<svg id="icon" class="icon" xmlns="http://www.w3.org/2000/svg" xmlns:xlink="http://www.w3.org/1999/xlink">
  <defs>
    <style>
      svg .icon { display: none }
      svg .icon:target { display: block }
    </style>
  </defs>

  <!-- SOCIAL -->
  <symbol id="vk" viewBox="0 0 30 15.8">
	  <path d="M23.9 15.8c-.4 0-1.2-.1-2.1-.6-.6-.4-1.2-1-1.8-1.5-.4-.4-1.2-1.2-1.4-1.2-.3.1-.5.9-.5 1.6 0 .1 0 .8-.5 1.2-.4.4-1.1.5-1.2.5h-1.9c-1 0-4.4-.2-7.4-3C3.4 9.4.3 3 .1 2.7 0 2.2-.1 1.5.3 1.1.7.7 1.4.6 1.7.6H5.9c.1 0 .6.1 1 .3.4.2.6.7.6.7S8.1 3 9 4.3c1.3 2 1.9 2.5 2.1 2.6.2-.4.3-1.7.2-2.9 0-.5-.1-1.1-.3-1.3-.1-.1-.4-.3-.8-.3l-.7-.6c-.1-.7.6-1.2 1.1-1.4.7-.3 1.8-.4 3.1-.4h.7c1.2 0 1.6.1 2.1.2 1.7.4 1.6 1.7 1.6 3.3v2.1c0 .4 0 1 .1 1.3.2-.1.9-.7 2.1-2.5.8-1.2 1.4-2.5 1.5-2.8.2-.4.6-.9 1.6-.9h4.7c1 0 1.6.3 1.8.9.3.6.2 1.7-2.4 4.6-.4.4-.7.8-1 1.1-.6.7-1.2 1.4-1.2 1.6.1.1.7.6 1.3 1.1 1.5 1.2 2.5 2.3 3 3.1.5.8.4 1.3.3 1.7-.4.9-1.6 1-1.9 1h-4.1zm-5.3-4.9c.9 0 1.7.8 2.5 1.6.5.5 1 1 1.5 1.3.7.4 1.3.4 1.4.4h3.9c.2 0 .4-.1.5-.1 0 0 0-.1-.1-.2-.4-.7-1.4-1.7-2.7-2.7-1.2-1-1.8-1.5-1.9-2.2-.1-.8.5-1.4 1.6-2.7.3-.3.6-.7 1-1.1 1.6-1.8 2-2.6 2.1-3H23.1c-.2.4-.8 1.8-1.6 3-1.9 2.8-2.8 3.2-3.4 3.2-.2 0-.4 0-.6-.1-1-.6-1-1.8-.9-2.8v-.4-1.7c.1-1.7 0-1.7-.4-1.8-.4-.1-.7-.1-1.9-.2h-.7c-.6 0-1.3 0-1.9.1l.3.3c.6.7.6 2 .6 2.2.1 1.6.1 3.8-1 4.3-.2.1-.4.1-.6.1-.9 0-1.9-.9-3.4-3.3-.8-1.2-1.5-2.7-1.5-2.8L6 2.2c-.1 0-.2-.1-.3-.1h-4-.1c.6 1.2 3.4 6.6 6.5 9.5 2.7 2.5 5.8 2.6 6.4 2.6h1.9s.2-.1.3-.1V14c0-.3 0-2.6 1.6-3 .1-.1.2-.1.3-.1z"/>
  </symbol>
  <svg viewBox="0 0 30 15.8" id="vk-dark-slate-blue" class="icon">
    <use xlink:href="#vk" fill="#1d2e5b"></use>
	</svg>
  <svg viewBox="0 0 30 15.8" id="vk-silver" class="icon">
    <use xlink:href="#vk" fill="#cccccc"></use>
	</svg>
  <symbol id="facebook" viewBox="0 0 11 21">
    <path d="M7.8 21H2.2v-9.8H0V6.4h2.1c-.1-2.2.3-3.8 1.3-4.9C4.2.6 5.5.1 7.1 0H11v4.7H7.9c-.1.2-.2.8-.2 1.7H11v4.8H7.8V21zm-4.4-1.1h3.1v-9.8h3.2V7.5H6.5v-.6c0-1.5 0-2.9.8-3.4l.2-.1h2.3V1.1H7.1c-1.2.1-2.2.5-2.8 1.2-.8.9-1.1 2.5-.9 4.6l.1.6H1.2v2.6h2.2v9.8z"/>
  </symbol>
  <svg viewBox="0 0 11 21" id="facebook-dark-slate-blue" class="icon">
    <use xlink:href="#facebook" fill="#1d2e5b"></use>
	</svg>
  <svg viewBox="0 0 11 21" id="facebook-silver" class="icon">
    <use xlink:href="#facebook" fill="#cccccc"></use>
	</svg>
  <symbol id="instagram" viewBox="0 0 23 23">
    <path d="M17 1.5c2.5 0 4.5 2 4.5 4.5v11c0 2.5-2 4.5-4.5 4.5H6c-2.5 0-4.5-2-4.5-4.5V6c0-2.5 2-4.5 4.5-4.5h11M17 0H6C2.7 0 0 2.7 0 6v11c0 3.3 2.7 6 6 6h11c3.3 0 6-2.7 6-6V6c0-3.3-2.7-6-6-6z"/><path d="M11.5 7.1c2.4 0 4.4 2 4.4 4.4 0 2.4-2 4.4-4.4 4.4-2.4 0-4.4-2-4.4-4.4 0-2.4 2-4.4 4.4-4.4m0-1.5c-3.3 0-5.9 2.7-5.9 5.9s2.7 5.9 5.9 5.9 5.9-2.7 5.9-5.9-2.6-5.9-5.9-5.9z"/><circle cx="17.6" cy="5.4" r="1.3"/>
  </symbol>
  <svg viewBox="0 0 23 23" id="instagram-dark-slate-blue" class="icon">
    <use xlink:href="#instagram" fill="#1d2e5b"></use>
	</svg>
  <svg viewBox="0 0 23 23" id="instagram-silver" class="icon">
    <use xlink:href="#instagram" fill="#cccccc"></use>
	</svg>

  <!-- TRANSPORT -->
  <symbol id="plane" viewBox="0 0 19 21">
	  <path d="M18.9 18.9c-.1-.3-3.7-10.1-3.7-10.1-.1-.5.1-.7.3-1.1 0 0 2.1-3.5 2.8-4.6.7-1.2.6-2.3-.1-2.8s-1.7-.1-2.5 1-3 4.5-3 4.5c-.3.4-.4.7-.9.8-.1-.1-10.3.4-10.6.4-.3 0-.7.1-1 .6-.4.7-.2.9.2 1 0 0 8 2.6 8.3 2.7.3 0 .3.2.2.6-.2.4-1.4 2.3-1.6 2.6-.1.2-.2.2-.4.3l-2.8 1c-.1 0-.3.1-.4.3l-.4.6c-.2.3-.1.5.2.5.3.1 2.1.2 2.1.2s.3.1.4.1c.2.1.4.3.2.6-.3.6-.4 1.2-.2 1.3s.6-.2 1-.7c.2-.3.4-.2.6 0 .2-.1.4.1.4.1s.8 1.6 1 1.9c.2.3.4.3.6 0l.4-.6c.1-.1.1-.3.1-.5l-.3-3.1c0-.2 0-.2.1-.5.1-.2 1.4-2.2 1.6-2.5.2-.3.4-.3.6-.1.2.2 5.7 6.7 5.7 6.7.3.3.5.4.9-.2.4-.4.3-.8.2-1z"/>
  </symbol>
  <svg viewBox="0 0 19 21" id="plane-dark-slate-blue" class="icon">
    <use xlink:href="#plane" fill="#1d2e5b"></use>
	</svg>
  <symbol id="bus" viewBox="0 0 17 21">
	  <path d="M16.2 3.1c-.2-1.2-1-1.6-2.1-2.1-1.1-.4-3.7-1-5.6-1C6.6 0 4 .6 2.9 1c-1.1.5-1.8.9-2.1 2.1L0 9.5v8.8h1.4v1.4c0 1.7 2.5 1.7 2.5 0v-1.4h9.2v1.4c0 1.7 2.5 1.7 2.5 0v-1.4H17V9.5l-.8-6.4zM5 1.6h7c.7 0 .7 1 0 1H5c-.7.1-.7-1 0-1zm-2.3 14c-.6 0-1.2-.5-1.2-1.2s.5-1.2 1.2-1.2c.6 0 1.2.5 1.2 1.2-.1.6-.6 1.2-1.2 1.2zm5.7-5.4H2.2c-.6 0-.7-.4-.7-.9l.6-4.7c.1-.6.3-.9 1-.9h10.7c.7 0 .9.4 1 .9l.6 4.7c.1.4-.1.9-.7.9H8.4zm5.9 5.4c-.6 0-1.2-.5-1.2-1.2s.5-1.2 1.2-1.2c.6 0 1.2.5 1.2 1.2 0 .6-.5 1.2-1.2 1.2z"/>
  </symbol>
  <svg viewBox="0 0 17 21" id="bus-dark-slate-blue" class="icon">
    <use xlink:href="#bus" fill="#1d2e5b"></use>
	</svg>
  <symbol id="bike" viewBox="0 0 24 21">
	  <path d="M16 3.6c1 0 1.8-.8 1.8-1.8S17 0 16 0s-1.8.8-1.8 1.8.8 1.8 1.8 1.8zm3 7.4c-2.8 0-5 2.3-5 5s2.2 5 5 5 5-2.3 5-5-2.2-5-5-5zm0 8.6c-1.9 0-3.5-1.6-3.5-3.5s1.6-3.5 3.5-3.5 3.5 1.6 3.5 3.5-1.6 3.5-3.5 3.5zM14.8 8.9H19V7.1h-3.2l-1.9-3.3c-.3-.5-.8-.8-1.5-.8-.5 0-.9.2-1.2.5L7.5 7.2c-.3.3-.5.7-.5 1.2 0 .6.3 1.2.8 1.5l3.3 2v5H13v-6.5l-2.2-1.7 2.3-2.4 1.7 2.6zM5 11c-2.8 0-5 2.3-5 5s2.2 5 5 5 5-2.3 5-5-2.2-5-5-5zm0 8.6c-1.9 0-3.5-1.6-3.5-3.5s1.6-3.5 3.5-3.5 3.5 1.5 3.5 3.5-1.6 3.5-3.5 3.5z"/>
  </symbol>
  <svg viewBox="0 0 24 21" id="bike-dark-slate-blue" class="icon">
    <use xlink:href="#bike" fill="#1d2e5b"></use>
	</svg>
  <symbol id="foot" viewBox="0 0 20 21">
	  <ellipse cx="14.3" cy="2" rx="2.1" ry="2"/><path d="M19.4 4.6c-.5-.2-1.2-.1-1.4.4l-.9 1.6L13 4.3c-.2-.1-.3-.1-.6-.1H7.9c-.4 0-.7.1-.9.5L5.3 7.6c-.3.5-.1 1.1.4 1.3.2.1.4.1.5.1.4 0 .8-.2 1-.5l1.4-2.4h1.6l-4.7 8.1H1.1c-.6 0-1.1.4-1.1 1s.5 1 1.1 1h5c.4 0 .7-.2.9-.5l1.9-3.2 3 2.6-.2 4.9c-.1.5.4 1 1 1h.1c.6 0 1-.4 1.1-.9l.3-5.4c0-.3-.1-.6-.3-.8l-2.6-2.2L14 7.1l3.1 1.8c0 .1.4.2.6.1.3-.1.5-.2.7-.5L19.9 6c.3-.5.1-1.1-.5-1.4z"/>
  </symbol>
  <svg viewBox="0 0 20 21" id="foot-dark-slate-blue" class="icon">
    <use xlink:href="#foot" fill="#1d2e5b"></use>
	</svg>

  <!-- MENU -->
  <symbol id="menu" viewBox="0 0 25 11">
	  <path d="M1.5 3h22c.8 0 1.5-.7 1.5-1.5S24.3 0 23.5 0h-22C.7 0 0 .7 0 1.5S.7 3 1.5 3zM23.5 8h-22C.7 8 0 8.7 0 9.5S.7 11 1.5 11h22c.8 0 1.5-.7 1.5-1.5S24.3 8 23.5 8z"/>
  </symbol>
  <svg viewBox="0 0 20 21" id="menu-white" class="icon">
    <use xlink:href="#menu" fill="#ffffff"></use>
	</svg>
  <symbol id="menu-close" viewBox="0 0 18 18">
	  <path d="M10.3 9l7.4-7.4c.4-.4.4-.9 0-1.3s-.9-.4-1.3 0L9 7.7 1.6.3C1.2-.1.7-.1.3.3s-.4.9 0 1.3L7.7 9 .3 16.4c-.4.4-.4.9 0 1.3s.9.4 1.3 0L9 10.3l7.4 7.4c.4.4.9.4 1.3 0s.4-.9 0-1.3L10.3 9z"/>
  </symbol>
  <svg viewBox="0 0 20 21" id="menu-close-silver" class="icon">
    <use xlink:href="#menu-close" fill="#cccccc"></use>
	</svg>
  <symbol id="topmenu-phone" viewBox="0 0 18 18">
	  <path d="M12.6 18h-.8c-3.6-.4-6.2-2.1-8.1-4.3C1.8 11.6.3 8.8 0 5V4c.1-.7.4-1.1.8-1.5C1.2 2 2 1.4 2.6 1.3c.5 0 1.3.3 1.6.8.3.4.4 1.2.6 1.8.1.6.4 1.4.4 2-.2.9-1.3 1.3-1.7 1.9 1.1 2.8 3 4.8 5.4 6.2.6-.3 1.2-1.4 2-1.4.3 0 .7.2 1 .3.3.1.6.2 1 .4.5.2 1.4.5 1.7.9.3.4.5 1.2.4 1.7-.1.8-1.6 1.8-2.4 2.1z" id="UrwUhy_1_"/><path d="M9.1 1.1c4.3 0 7.8 3.6 7.8 8H18c0-5-4-9.1-8.9-9.1v1.1zM9.1 6.9V8c.6 0 1 .5 1 1.1h1.1c0-1.2-.9-2.2-2.1-2.2z"/><path d="M9.1 4.6c2.4 0 4.4 2 4.4 4.5h1.2c0-3.1-2.5-5.7-5.5-5.7v1.2h-.1z"/>
  </symbol>
  <svg viewBox="0 0 18 18" id="topmenu-phone-dark" class="icon">
    <use xlink:href="#topmenu-phone" fill="#161c35"></use>
	</svg>
  <symbol id="topmenu-mail" viewBox="0 0 18 14">
	  <path d="M14.9 1.8c1.2-1 .9-1.8-.7-1.8H3.7c-1.5 0-1.8.8-.6 1.8l3.7 3.1c1.2 1 3.2 1 4.4 0l3.7-3.1z"/><path d="M11.9 7.1c-1.2 1-2.2 1.8-2.2 1.8-.1.1-.2.1-.3.1h-.1c-.1.1-.2.1-.3.1-.1 0-.2 0-.3-.1h-.1c-.1 0-.2 0-.3-.1 0 0-1-.8-2.2-1.8L2.2 3.8C1 2.8 0 3.3 0 4.8v6.3C0 12.7 1.3 14 2.8 14h12.3c1.6 0 2.8-1.3 2.8-2.8V4.8c0-1.6-1-2-2.2-1l-3.8 3.3z"/>
  </symbol>
  <svg viewBox="0 0 18 14" id="topmenu-mail-dark" class="icon">
    <use xlink:href="#topmenu-mail" fill="#161c35"></use>
	</svg>

  <!-- CONTACTS -->
  <symbol id="phone" viewBox="0 0 36 36">
	  <path d="M18 0C11.6 0 5.2 1.1 2.8 3.4.9 5.3.2 8.7 0 10.8v.3c0 .8.7 1.5 1.5 1.5.1 0 3.7-.3 5.9-.5h.2c.8 0 1.5-.7 1.5-1.5v-3C9 6.7 9.7 6 10.7 6h14.7c.8 0 1.6.7 1.6 1.7v3c0 .8.7 1.5 1.5 1.5h.2c2.2.2 5.8.5 5.9.5.8 0 1.5-.7 1.5-1.5v-.3c-.2-2.1-.9-5.5-2.8-7.4C30.8 1.1 24.4 0 18 0zm0 19.5c-1.7 0-3 1.3-3 3s1.3 3 3 3 3-1.3 3-3-1.3-3-3-3zm-2.3-6.8v-1.9c0-1-.8-1.9-1.9-1.9s-1.8.9-1.8 2v1.9L1.9 23.6c-.7.7-1.1 1.6-1.1 2.7v3c0 1.7 1.3 3 3 3h.8v1.9c0 1 .8 1.9 1.9 1.9s1.9-.8 1.9-1.9v-1.9h19.5v1.9c0 1 .8 1.9 1.9 1.9 1 0 1.9-.8 1.9-1.9v-1.9h.8c1.7 0 3-1.3 3-3v-3c0-1.1-.4-2-1.1-2.7L24 12.7v-1.9c0-1-.8-1.9-1.9-1.9s-1.9.8-1.9 1.9v1.9h-4.5zm2.3 3.8c3.3 0 6 2.7 6 6s-2.7 6-6 6-6-2.7-6-6 2.7-6 6-6z"/>
  </symbol>
  <svg viewBox="0 0 36 36" id="phone-light-gold" class="icon">
    <use xlink:href="#phone" fill="#ffd74b"></use>
	</svg>
  <svg viewBox="0 0 36 36" id="phone-dark" class="icon">
    <use xlink:href="#phone" fill="#161c35"></use>
	</svg>
  <symbol id="mail" viewBox="0 0 36 26">
	  <path d="M0 23c0 1.6 1.3 3 3 3h30c1.7 0 3-1.3 3-3V3c0-1.6-1.3-3-3-3H3C1.3 0 0 1.3 0 3v20zm11-10L4.2 6.2c-.6-.6-.6-1.5 0-2 .6-.6 1.5-.6 2.1 0l11 10.9c.4.4 1.2.4 1.6 0l11-10.9c.6-.6 1.5-.6 2.1 0 .6.6.6 1.5 0 2L25 13l6.9 6.8c.6.6.6 1.5 0 2-.6.6-1.5.6-2.1 0L22.9 15s-2.1 2.2-2.5 2.5c-.6.6-1.4 1-2.4 1-.9 0-1.8-.4-2.4-1L13.1 15l-6.9 6.8c-.6.6-1.5.6-2.1 0-.6-.6-.6-1.5 0-2L11 13z"/>
  </symbol>
  <svg viewBox="0 0 36 26" id="mail-light-gold" class="icon">
    <use xlink:href="#mail" fill="#ffd74b"></use>
	</svg>
  <svg viewBox="0 0 36 26" id="mail-dark" class="icon">
    <use xlink:href="#mail" fill="#161c35"></use>
	</svg>
  <symbol id="location" viewBox="0 0 28 43">
	  <path d="M11.7 13.9c0-1.2 1-2.2 2.3-2.2s2.3 1 2.3 2.2c0 1.2-1 2.2-2.3 2.2-1.2 0-2.3-1-2.3-2.2zM14 8.1c-3.2 0-5.9 2.6-5.9 5.8s2.6 5.8 5.9 5.8c3.2 0 5.9-2.6 5.9-5.8 0-3.2-2.7-5.8-5.9-5.8zM0 13.6c0 9.1 10.9 16.2 11.7 26.7v.4c0 1.2 1 2.2 2.3 2.2s2.3-1 2.3-2.2v-.4C17.2 29.8 28 22.8 28 13.6 28 6.1 21.7 0 14 0S0 6.1 0 13.6zm14-9.1c5.2 0 9.5 4.2 9.5 9.4s-4.2 9.4-9.5 9.4-9.5-4.2-9.5-9.4S8.8 4.5 14 4.5z"/>
  </symbol>
  <svg viewBox="0 0 28 43" id="location-light-gold" class="icon">
    <use xlink:href="#location" fill="#ffd74b"></use>
	</svg>

  <!-- LIKES -->
  <symbol id="heart" viewBox="0 0 20 17">
	  <path d="M18.5 1.5c-2-2-5.3-2-7.3 0L10 2.7 8.8 1.5c-2-2-5.3-2-7.3 0s-2 5.2 0 7.2l1.2 1.2L10 17l7.3-7.2 1.2-1.2c2-1.9 2-5.1 0-7.1zm-3.6 8.3L10 14.6 5.1 9.8 2.7 7.5C1.4 6.1 1.4 4 2.7 2.7c1.3-1.3 3.5-1.3 4.9 0L10 5.1l2.4-2.4c1.3-1.3 3.5-1.3 4.9 0 1.3 1.3 1.3 3.5 0 4.8l-2.4 2.3z"/>
  </symbol>
  <svg viewBox="0 0 20 17" id="heart-dark-blue-grey" class="icon">
    <use xlink:href="#heart" fill="#192144"></use>
	</svg>
  <symbol id="heart-active" viewBox="0 0 13 11">
	  <path d="M12 1a3.32 3.32 0 0 0-4.7 0l-.8.7-.8-.7A3.32 3.32 0 0 0 1 1C-.3 2.3-.3 4.4 1 5.6l.8.8L6.5 11l4.7-4.6.8-.8c1.3-1.3 1.3-3.4 0-4.6z"/>
  </symbol>
  <svg viewBox="0 0 13 11" id="heart-active-pomegranate" class="icon">
    <use xlink:href="#heart-active" fill="#f02323"></use>
	</svg>

  <symbol id="rates-symbol" viewBox="0 0 396 396">
	  <circle cx="198" cy="197.99998" r="198" fill="#fff"/><circle cx="328.98676" cy="67.040253" r="67.012497" fill="#ffd74b"/><path d="M314.39 41.06c-.05-1.98 1.68-3.61 3.66-3.47l17.98-.02c5.09-.03 10.26 1.91 13.77 5.66 5.44 5.76 6.59 15.15 2.49 21.97-3.27 5.67-9.76 9.22-16.29 8.99l-15.375.04887v8.240787l20.85498.08081c3.09 1.02 2.68 5.624533-.41 6.314533H320.625c-.01 2.7 1.20868 7.479164-2.52132 7.699164-4.04.1-3.80657-4.926055-3.75993-7.699164-2.79527-.01984-7.10375.845-7.30375-2.885-.56-4.2 4.48375-3.610468 7.30375-3.550468V41.06M320.625 67.5h14.38189c5.21135.248499 10.73311-3.14 12.24311-8.29 2.02-6.31-2.54-14.085-9.25-14.735h-17.375z" fill="#161c35"/><g fill="#edeff6"><path d="M136.34 116.49c2.17-.47 4.41-.49 6.62-.49 19 .1 37.99-.03 56.99.05 6.88-.01 13.51 4.34 16.3 10.62 2.29 4.44 1.68 9.57 1.72 14.39.01 41.65.06 83.3.04 124.95-.11 7.36-5.13 14.48-12.18 16.78-4.13 1.43-8.56 1.17-12.86 1.19-17.67-.06-35.34.04-53.01-.06-9.76-.17-18.44-9.09-17.94-18.92.08-43.67-.05-87.34.05-131.02-.04-8.18 6.45-15.62 14.27-17.49m2.96 11.89c-4.2 1.04-5.4 5.86-5.3 9.64.09 41.33.01 82.66.03 123.99.06 3.09.41 6.9 3.33 8.68 1.63 1.19 3.71 1.28 5.65 1.3 18.32-.08 36.64.01 54.96-.04 2.85.11 5.86-1.22 7.14-3.9 1.45-3.48.89-7.44.78-11.12-.27-4.64-4.16-8.61-8.83-8.83-7.68-.32-15.38-.01-23.07-.13-9.43.42-17.28-8.79-15.99-18.02.06-16.63.01-33.27.01-49.91-.29-8.2 6.74-15.84 14.99-15.97 7.7-.2 15.4.08 23.1-.08 3.01-.14 6.38-1.07 8.09-3.76 2.46-3.59 1.71-8.13 1.81-12.22-.12-4.65.26-9.32-.19-13.96-.83-5.73-8.97-8.07-13.1-4.35-2.27 3.11-2.74 7.56-6.01 9.88-6.83 1.05-13.83.13-20.72.45-4.22-.12-8.5.45-12.66-.35-3.57-2.12-4.17-6.59-6.15-9.9-1.96-2.14-5.27-2.04-7.87-1.4m43.26 63.18c-1.87 3.76 1.16 8.55 5.39 8.34 5.76-.14 11.87.94 17.43-.57 1.28-3.36.83-7.33.14-10.81-4.76-1.08-9.72-.31-14.56-.54-3.05-.06-7.31.03-8.4 3.58zM232.3 164.36c13.85-.82 27.81-.05 41.7-.34 8.53-.32 16.41 7.42 15.98 16-.05 17.34-.04 34.68-.02 52.02.25 8.11-6.73 15.74-14.9 15.88-13.34.16-26.68.02-40.01.02-2.07.19-4.53-.77-4.89-3.05-.26-2.84-1.07-7 2.14-8.48 3.16-.83 6.49-.3 9.72-.4 10.34-.08 20.68.09 31.02-.05 2.73.18 5.06-2.18 4.87-4.91.2-8.01-.02-16.05-.04-24.07.1-3.72-3.26-6.78-6.87-6.9-12.64-.29-25.32.2-37.96-.22-3.62-.69-3.28-5.18-3.02-7.96-.12-2.17 1.89-3.93 4-3.8 13.01-.34 26.03.13 39.04-.14 6.81.26 6.76-12.36-.12-11.92-12.67-.11-25.35.04-38.02-.04-2.42.31-4.99-1.41-4.91-4.01-.1-2.63-.58-6.25 2.29-7.63z"/><path d="M247.31 212.33c2.77-1.07 5.57 1.32 8.34.31 1.65-.31 3.38-.99 5.04-.32 4.47 1.24 5.58 8.43 1.34 10.69-2.6 1.95-5.77-.03-8.66.45-2.85.19-6.64 1.66-8.59-1.26-3-3.04-1.6-8.69 2.53-9.87z"/></g>
  </symbol>
  <svg id="rates" viewBox="0 0 396 396" class="icon">
    <use xlink:href="#rates-symbol"></use>
	</svg>
</svg>
