<?xml version="1.0" encoding="UTF-8" ?>
<!DOCTYPE svg PUBLIC "-//W3C//DTD SVG 1.1//EN" "http://www.w3.org/Graphics/SVG/1.1/DTD/svg11.dtd">
<svg width="862pt" height="1280pt" viewBox="0 0 862 1280" version="1.1" xmlns="http://www.w3.org/2000/svg">
<g fill="#2a3658">
<path d="M 494.29 0.00 L 502.60 0.00 C 521.45 2.23 539.59 8.82 556.25 17.77 C 564.17 22.21 572.11 27.08 578.13 33.99 C 580.56 36.68 581.17 40.63 584.08 42.92 C 588.70 46.73 592.74 51.38 595.18 56.89 C 599.80 67.22 600.33 78.90 598.97 90.00 C 597.65 100.31 594.73 110.36 590.93 120.01 C 586.06 131.48 580.85 143.21 572.38 152.54 C 566.35 147.82 562.20 141.26 557.94 135.00 C 556.23 132.15 554.01 129.40 553.43 126.05 C 555.54 120.00 560.59 115.36 562.10 109.03 C 564.39 101.72 560.27 93.91 554.38 89.64 C 551.16 87.25 546.52 86.87 543.15 89.17 C 536.74 93.40 535.54 101.99 529.73 106.77 C 527.90 108.65 525.93 106.48 525.41 104.65 C 521.88 94.09 523.15 81.88 516.79 72.32 C 508.86 62.53 496.27 58.09 484.40 55.26 C 477.01 47.34 469.21 39.55 463.94 29.99 C 462.46 27.04 460.75 23.51 462.10 20.21 C 462.65 18.65 464.52 18.32 465.95 18.71 C 472.43 20.19 477.60 24.98 484.10 26.38 C 485.70 26.89 488.06 26.00 487.85 24.01 C 486.65 17.56 479.06 13.73 479.11 7.00 C 482.34 1.98 488.77 0.72 494.29 0.00 Z" />
<path d="M 88.27 967.91 C 125.54 967.56 162.83 967.80 200.10 967.79 C 202.13 967.30 201.42 969.89 201.60 970.98 C 201.55 981.56 201.51 992.14 201.62 1002.72 C 163.84 1002.91 126.06 1002.82 88.29 1002.77 C 88.32 991.15 88.35 979.53 88.27 967.91 Z" />
</g>
<g fill="#e39f90">
<path d="M 484.40 55.26 C 496.27 58.09 508.86 62.53 516.79 72.32 C 523.15 81.88 521.88 94.09 525.41 104.65 C 525.93 106.48 527.90 108.65 529.73 106.77 C 535.54 101.99 536.74 93.40 543.15 89.17 C 546.52 86.87 551.16 87.25 554.38 89.64 C 560.27 93.91 564.39 101.72 562.10 109.03 C 560.59 115.36 555.54 120.00 553.43 126.05 C 554.01 129.40 556.23 132.15 557.94 135.00 C 562.20 141.26 566.35 147.82 572.38 152.54 C 573.85 160.34 575.39 168.13 576.75 175.95 C 558.98 180.34 541.20 184.70 523.41 189.03 C 524.62 182.17 525.98 175.33 527.25 168.48 C 514.06 169.37 500.76 170.61 487.58 169.18 C 480.91 168.61 476.37 162.79 474.34 156.88 C 470.18 145.09 470.26 132.35 470.59 120.01 C 470.90 109.95 472.16 99.97 473.49 90.00 C 475.27 77.97 476.83 65.27 484.40 55.26 Z" />
<path d="M 172.01 524.05 C 183.19 518.43 196.28 517.70 208.46 519.86 C 219.68 521.96 230.88 526.86 238.34 535.78 C 245.95 536.26 253.56 536.59 261.17 536.97 C 259.57 547.47 258.06 557.98 256.52 568.48 C 250.85 566.55 245.20 564.54 239.54 562.59 C 238.02 562.01 236.37 562.07 234.79 562.29 C 229.83 562.04 224.82 562.08 219.95 560.94 C 212.19 559.58 204.83 556.38 196.93 555.69 C 187.41 554.70 177.51 555.97 168.96 560.46 C 164.13 556.46 160.08 551.26 158.81 545.00 C 157.60 535.82 164.15 527.84 172.01 524.05 Z" />
<path d="M 449.95 1165.35 C 455.64 1165.56 461.34 1165.56 467.04 1165.84 C 475.61 1166.96 484.28 1166.89 492.91 1167.20 C 495.10 1167.32 497.28 1167.45 499.49 1167.58 C 499.06 1176.55 498.30 1185.51 498.01 1194.49 C 494.76 1195.46 491.36 1195.48 488.01 1195.31 C 481.31 1195.06 474.66 1194.13 467.97 1193.76 C 461.98 1192.90 455.87 1193.19 449.94 1191.90 C 449.94 1183.04 449.93 1174.20 449.95 1165.35 Z" />
<path d="M 598.03 1168.47 C 612.99 1168.59 627.96 1168.79 642.91 1168.42 C 643.36 1176.39 643.02 1184.37 643.13 1192.35 C 628.71 1192.51 614.29 1192.20 599.88 1192.39 C 599.29 1184.41 598.43 1176.46 598.03 1168.47 Z" />
</g>
<g fill="#e9eaed">
<path d="M 188.15 91.63 C 196.26 89.55 204.69 90.05 212.98 90.00 C 299.82 90.00 386.65 89.99 473.49 90.00 C 472.16 99.97 470.90 109.95 470.59 120.01 C 381.38 120.01 292.17 120.02 202.96 120.01 C 186.35 118.65 170.69 134.45 172.01 151.01 C 172.02 275.36 172.02 399.70 172.01 524.05 C 164.15 527.84 157.60 535.82 158.81 545.00 C 153.21 545.00 147.60 545.00 142.00 545.00 C 142.00 413.35 141.99 281.70 142.01 150.05 C 142.00 140.26 144.40 130.47 149.03 121.83 C 156.96 106.79 171.57 95.45 188.15 91.63 Z" />
<path d="M 598.97 90.00 C 666.65 90.00 734.32 89.99 802.00 90.01 C 817.97 89.93 833.80 96.60 844.90 108.07 C 854.97 118.23 860.92 132.09 862.00 146.31 L 862.00 1101.68 C 860.87 1117.07 853.92 1132.01 842.40 1142.35 C 832.74 1151.20 820.10 1156.74 807.03 1157.77 C 800.03 1158.22 793.02 1157.90 786.01 1158.00 C 742.37 1158.00 698.74 1158.00 655.10 1158.00 C 655.87 1148.00 656.61 1138.00 657.15 1127.98 C 705.44 1127.99 753.73 1127.98 802.03 1127.99 C 818.25 1128.79 833.30 1113.24 831.99 1097.04 C 831.98 781.70 831.98 466.36 831.99 151.02 C 833.35 134.40 817.61 118.63 800.99 120.01 C 730.97 120.02 660.95 120.01 590.93 120.01 C 594.73 110.36 597.65 100.31 598.97 90.00 Z" />
<path d="M 544.13 261.20 C 548.86 262.79 553.09 265.50 557.66 267.46 C 572.89 274.14 589.44 277.50 605.99 278.36 C 611.82 278.15 617.71 278.90 623.47 277.67 C 632.09 276.89 640.64 275.42 648.98 273.10 C 651.60 272.29 654.25 271.50 656.99 271.17 C 645.87 281.26 631.29 287.24 616.51 289.35 C 603.79 290.67 590.74 288.95 578.93 283.99 C 565.94 278.80 554.34 270.68 544.13 261.20 Z" />
<path d="M 315.93 397.08 C 330.95 345.17 368.96 300.42 417.81 277.30 C 415.93 282.06 413.09 286.34 410.88 290.94 C 405.12 302.16 400.34 313.89 396.51 325.91 C 394.74 328.31 392.23 329.98 390.11 332.05 C 377.64 343.83 366.50 357.20 358.50 372.44 C 348.77 390.66 340.80 410.30 339.14 431.07 C 337.02 451.76 337.81 472.89 342.56 493.18 L 342.33 493.92 C 335.27 501.71 326.82 508.08 318.03 513.78 C 305.51 476.29 304.64 434.98 315.93 397.08 Z" />
<path d="M 142.00 570.56 C 152.00 570.57 162.01 570.56 172.01 570.57 C 172.01 642.73 172.01 714.89 172.01 787.06 C 162.01 787.06 152.00 787.06 142.00 787.06 C 142.00 714.89 142.00 642.73 142.00 570.56 Z" />
<path d="M 361.30 585.46 C 373.00 583.43 384.72 581.16 395.97 577.25 C 404.59 584.87 414.30 591.15 424.39 596.64 C 423.36 607.25 422.46 617.88 421.66 628.52 C 398.95 618.38 378.36 603.53 361.30 585.46 Z" />
<path d="M 308.25 1127.99 C 351.91 1127.99 395.57 1127.98 439.23 1127.99 C 439.68 1137.99 440.03 1147.99 440.36 1158.00 C 396.32 1158.00 352.29 1158.00 308.25 1158.00 C 308.25 1147.99 308.25 1137.99 308.25 1127.99 Z" />
<path d="M 506.83 1158.00 C 508.41 1148.03 509.54 1138.01 510.61 1127.98 C 537.65 1127.99 564.69 1127.99 591.74 1127.98 C 592.39 1137.98 592.91 1147.99 593.37 1158.00 C 564.52 1158.00 535.68 1158.00 506.83 1158.00 Z" />
</g>
<g fill="#f9f9fa">
<path d="M 576.75 175.95 C 613.23 167.07 649.66 157.96 686.16 149.16 C 688.55 157.67 690.48 166.31 691.82 175.05 C 694.81 195.58 695.31 217.19 688.16 236.95 C 683.17 251.03 672.81 263.20 659.26 269.68 C 672.03 290.80 684.36 312.20 696.22 333.85 C 714.92 368.33 732.84 403.39 746.74 440.13 C 752.81 456.90 758.60 474.08 759.91 491.99 C 761.24 509.01 753.18 525.03 743.76 538.65 C 725.43 564.18 700.62 584.22 674.91 601.90 C 677.01 633.23 679.17 664.55 681.18 695.88 C 677.36 695.88 673.55 695.95 669.74 695.98 C 590.26 696.54 510.79 697.14 431.31 697.74 C 426.37 697.74 421.44 697.87 416.50 697.78 C 418.13 674.69 420.11 651.61 421.66 628.52 C 422.46 617.88 423.36 607.25 424.39 596.64 C 425.49 584.89 426.36 573.13 427.53 561.39 C 417.97 568.39 407.11 573.37 395.97 577.25 C 384.72 581.16 373.00 583.43 361.30 585.46 C 325.79 589.83 289.74 588.90 254.36 583.81 C 254.97 578.68 255.82 573.59 256.52 568.48 C 258.06 557.98 259.57 547.47 261.17 536.97 C 261.24 536.61 261.38 535.89 261.46 535.53 C 281.33 531.48 300.68 524.36 318.03 513.78 C 326.82 508.08 335.27 501.71 342.33 493.92 C 352.25 483.62 358.89 470.67 364.31 457.56 C 372.56 437.10 377.25 415.44 381.38 393.83 C 385.77 371.06 388.99 347.93 396.51 325.91 C 400.34 313.89 405.12 302.16 410.88 290.94 C 413.09 286.34 415.93 282.06 417.81 277.30 C 421.09 274.29 422.82 270.02 425.57 266.56 C 437.10 250.30 451.54 235.63 469.36 226.34 C 471.41 220.10 471.78 213.32 474.14 207.18 C 479.11 200.59 487.61 198.51 495.05 196.02 C 504.48 193.61 513.98 191.48 523.41 189.03 C 541.20 184.70 558.98 180.34 576.75 175.95 M 544.13 261.20 C 554.34 270.68 565.94 278.80 578.93 283.99 C 590.74 288.95 603.79 290.67 616.51 289.35 C 631.29 287.24 645.87 281.26 656.99 271.17 C 654.25 271.50 651.60 272.29 648.98 273.10 C 640.64 275.42 632.09 276.89 623.47 277.67 C 617.71 278.90 611.82 278.15 605.99 278.36 C 589.44 277.50 572.89 274.14 557.66 267.46 C 553.09 265.50 548.86 262.79 544.13 261.20 Z" />
<path d="M 135.18 1015.08 C 171.26 1026.05 207.35 1037.00 243.47 1047.87 C 240.36 1059.17 236.84 1070.36 233.39 1081.56 C 197.28 1070.59 161.17 1059.63 125.03 1048.74 C 128.33 1037.50 131.72 1026.28 135.18 1015.08 Z" />
<path d="M 449.94 1191.90 C 455.87 1193.19 461.98 1192.90 467.97 1193.76 C 474.66 1194.13 481.31 1195.06 488.01 1195.31 C 491.31 1195.62 494.64 1195.79 497.96 1195.56 C 497.11 1205.83 496.72 1216.12 496.06 1226.40 C 480.68 1226.48 465.30 1226.48 449.92 1226.40 C 449.95 1214.90 449.93 1203.40 449.94 1191.90 Z" />
<path d="M 599.88 1192.43 C 614.29 1192.68 628.72 1192.38 643.14 1192.46 C 643.36 1203.01 643.63 1213.56 643.83 1224.11 C 629.73 1223.75 615.61 1224.28 601.51 1223.84 C 601.56 1213.37 600.31 1202.90 599.88 1192.43 Z" />
</g>
<g fill="#1a213c">
<path d="M 96.64 545.00 C 111.76 545.00 126.88 545.00 142.00 545.00 C 147.60 545.00 153.21 545.00 158.81 545.00 C 160.08 551.26 164.13 556.46 168.96 560.46 C 177.51 555.97 187.41 554.70 196.93 555.69 C 204.83 556.38 212.19 559.58 219.95 560.94 C 224.82 562.08 229.83 562.04 234.79 562.29 C 232.38 562.65 229.95 562.85 227.52 563.08 C 227.81 565.57 227.89 568.08 227.90 570.59 C 221.89 570.54 215.89 570.55 209.88 570.58 C 209.87 642.74 209.87 714.90 209.89 787.06 C 204.20 787.06 198.51 787.06 192.82 787.06 C 192.81 714.91 192.79 642.76 192.83 570.61 C 185.89 570.51 178.95 570.58 172.01 570.57 C 162.01 570.56 152.00 570.57 142.00 570.56 C 138.57 570.55 135.13 570.56 131.70 570.58 C 131.68 642.74 131.68 714.90 131.70 787.06 C 126.01 787.06 120.33 787.06 114.64 787.06 C 114.52 714.87 114.80 642.68 114.50 570.50 C 108.53 570.59 102.56 570.62 96.59 570.48 C 96.66 561.99 96.60 553.49 96.64 545.00 Z" />
<path d="M 0.00 1214.34 C 1.34 1206.61 8.47 1200.96 16.24 1201.02 C 16.29 1211.69 16.15 1222.36 16.29 1233.03 C 16.21 1241.48 24.00 1248.68 32.39 1248.21 C 32.37 1255.43 32.64 1262.67 32.31 1269.89 C 32.17 1273.78 29.81 1277.00 27.58 1280.00 L 5.14 1280.00 C 2.58 1277.45 0.83 1274.20 0.00 1270.69 L 0.00 1214.34 Z" />
<path d="M 308.25 1201.03 C 316.51 1200.92 324.39 1207.52 324.49 1216.01 C 324.65 1233.37 324.55 1250.73 324.54 1268.09 C 324.68 1272.59 322.40 1276.62 319.62 1280.00 L 297.19 1280.00 C 294.35 1277.05 292.14 1273.26 292.13 1269.07 C 291.91 1262.11 292.13 1255.16 292.06 1248.21 C 297.56 1248.38 303.04 1245.64 305.90 1240.89 C 308.06 1237.68 308.30 1233.70 308.29 1229.97 C 308.23 1220.32 308.28 1210.67 308.25 1201.03 Z" />
<path d="M 601.51 1223.84 C 615.61 1224.28 629.73 1223.75 643.83 1224.11 C 644.24 1224.14 645.05 1224.19 645.45 1224.22 C 651.25 1239.37 657.67 1254.28 663.68 1269.35 C 664.92 1272.75 664.45 1276.45 664.33 1280.00 L 593.69 1280.00 C 593.10 1270.93 595.24 1262.05 596.50 1253.14 C 598.27 1243.39 599.01 1233.43 601.51 1223.84 Z" />
<path d="M 436.31 1227.33 C 438.36 1226.21 440.74 1226.31 443.00 1226.32 C 463.81 1226.93 484.63 1226.68 505.44 1226.38 C 505.37 1244.25 505.58 1262.13 505.33 1280.00 L 359.96 1280.00 C 359.59 1275.37 359.23 1270.74 358.94 1266.11 C 384.73 1253.19 410.53 1240.28 436.31 1227.33 Z" />
</g>
<g fill="#d86525">
<path d="M 431.31 697.74 C 510.79 697.14 590.26 696.54 669.74 695.98 C 663.54 774.55 658.19 853.21 655.18 931.98 C 655.38 942.34 656.64 952.65 657.03 963.00 C 660.12 1017.93 660.12 1073.04 657.15 1127.98 C 656.61 1138.00 655.87 1148.00 655.10 1158.00 C 654.81 1161.42 654.48 1164.86 654.17 1168.29 C 650.41 1168.30 646.66 1168.26 642.91 1168.42 C 627.96 1168.79 612.99 1168.59 598.03 1168.47 C 596.58 1168.43 595.12 1168.39 593.69 1168.39 C 593.59 1164.92 593.50 1161.45 593.37 1158.00 C 592.91 1147.99 592.39 1137.98 591.74 1127.98 C 588.35 1076.82 583.47 1025.77 577.50 974.85 C 569.38 907.10 559.44 839.59 549.17 772.13 C 548.36 767.04 547.66 761.93 546.67 756.88 C 537.39 793.14 527.51 829.28 520.01 865.97 C 518.65 873.58 516.82 881.22 516.93 889.00 C 520.39 919.18 520.07 949.62 519.56 979.95 C 518.40 1029.38 515.59 1078.79 510.61 1127.98 C 509.54 1138.01 508.41 1148.03 506.83 1158.00 C 506.31 1161.10 505.71 1164.20 505.10 1167.30 C 501.03 1167.17 496.97 1167.13 492.91 1167.20 C 484.28 1166.89 475.61 1166.96 467.04 1165.84 C 458.23 1164.90 449.34 1165.57 440.51 1164.79 C 440.47 1162.51 440.42 1160.25 440.36 1158.00 C 440.03 1147.99 439.68 1137.99 439.23 1127.99 C 436.98 1074.24 433.62 1020.55 430.85 966.84 C 428.79 932.63 429.88 898.34 429.84 864.10 C 430.21 808.65 430.73 753.19 431.31 697.74 Z" />
</g>
<g fill="#ee672f">
<path d="M 16.26 802.96 C 15.87 794.44 23.45 786.75 31.98 787.09 C 59.53 787.02 87.09 787.08 114.64 787.06 C 120.33 787.06 126.01 787.06 131.70 787.06 C 135.13 787.05 138.57 787.05 142.00 787.06 C 152.00 787.06 162.01 787.06 172.01 787.06 C 178.95 787.06 185.88 787.06 192.82 787.06 C 198.51 787.06 204.20 787.06 209.89 787.06 C 236.93 787.05 263.98 787.07 291.02 787.05 C 294.08 787.05 297.26 787.35 299.98 788.87 C 305.13 791.50 308.39 797.18 308.24 802.95 C 308.27 911.30 308.24 1019.64 308.25 1127.99 C 308.25 1137.99 308.25 1147.99 308.25 1158.00 C 308.25 1172.34 308.24 1186.68 308.25 1201.03 C 308.28 1210.67 308.23 1220.32 308.29 1229.97 C 308.30 1233.70 308.06 1237.68 305.90 1240.89 C 303.04 1245.64 297.56 1248.38 292.06 1248.21 C 205.50 1248.17 118.95 1248.17 32.39 1248.21 C 24.00 1248.68 16.21 1241.48 16.29 1233.03 C 16.15 1222.36 16.29 1211.69 16.24 1201.02 C 16.26 1068.33 16.23 935.64 16.26 802.96 M 88.27 967.91 C 88.35 979.53 88.32 991.15 88.29 1002.77 C 126.06 1002.82 163.84 1002.91 201.62 1002.72 C 201.51 992.14 201.55 981.56 201.60 970.98 C 201.42 969.89 202.13 967.30 200.10 967.79 C 162.83 967.80 125.54 967.56 88.27 967.91 M 135.18 1015.08 C 131.72 1026.28 128.33 1037.50 125.03 1048.74 C 161.17 1059.63 197.28 1070.59 233.39 1081.56 C 236.84 1070.36 240.36 1059.17 243.47 1047.87 C 207.35 1037.00 171.26 1026.05 135.18 1015.08 Z" />
</g>
</svg>
